<?xml version="1.0" encoding="iso-8859-1"?>
<!-- Generator: Adobe Illustrator 19.0.0, SVG Export Plug-In . SVG Version: 6.00 Build 0)  -->
<svg version="1.1" id="Capa_1" xmlns="http://www.w3.org/2000/svg" xmlns:xlink="http://www.w3.org/1999/xlink" x="0px" y="0px"
	 viewBox="0 0 512 512" style="enable-background:new 0 0 512 512;" xml:space="preserve">
<g>
	<g>
		<path d="M256,0C114.848,0,0,114.848,0,256s114.848,256,256,256s256-114.848,256-256S397.152,0,256,0z M256,480
			C132.512,480,32,379.52,32,256S132.512,32,256,32s224,100.48,224,224S379.488,480,256,480z"/>
	</g>
</g>
<g>
	<g>
		<path d="M206.176,202.656l-68.128-55.104c-6.848-5.536-16.928-4.48-22.496,2.4c-5.536,6.848-4.48,16.928,2.4,22.496L151.04,199.2
			C137.28,207.648,128,222.72,128,240c0,26.464,21.536,48,48,48s48-21.536,48-48C224,225.408,217.504,211.84,206.176,202.656z
			 M176,256c-8.8,0-16-7.168-16-16c0-8.832,7.2-16,16-16c4.672,0,8.064,1.92,10.048,3.552c3.808,3.04,5.952,7.584,5.952,12.448
			C192,248.832,184.8,256,176,256z"/>
	</g>
</g>
<g>
	<g>
		<path d="M396.416,149.952c-5.536-6.88-15.616-7.936-22.464-2.4l-68.128,55.104C294.496,211.808,288,225.408,288,240
			c0,26.464,21.536,48,48,48s48-21.536,48-48c0-17.28-9.28-32.352-23.04-40.8l33.088-26.752
			C400.928,166.88,401.984,156.832,396.416,149.952z M336,256c-8.8,0-16-7.168-16-16c0-4.864,2.144-9.408,5.952-12.448
			C327.936,225.92,331.328,224,336,224c8.8,0,16,7.168,16,16C352,248.832,344.8,256,336,256z"/>
	</g>
</g>
<g>
	<g>
		<path d="M347.008,388.416c-51.04-48.608-130.976-48.608-182.048,0c-6.4,6.08-6.656,16.224-0.576,22.624
			c6.112,6.4,16.256,6.624,22.624,0.576c38.688-36.832,99.264-36.832,137.952,0c3.104,2.912,7.072,4.384,11.04,4.384
			c4.224,0,8.448-1.664,11.584-4.96C353.664,404.64,353.44,394.496,347.008,388.416z"/>
	</g>
</g>
<g>
</g>
<g>
</g>
<g>
</g>
<g>
</g>
<g>
</g>
<g>
</g>
<g>
</g>
<g>
</g>
<g>
</g>
<g>
</g>
<g>
</g>
<g>
</g>
<g>
</g>
<g>
</g>
<g>
</g>
</svg>
