<?xml version="1.0" encoding="iso-8859-1"?>
<!-- Generator: Adobe Illustrator 16.0.0, SVG Export Plug-In . SVG Version: 6.00 Build 0)  -->
<!DOCTYPE svg PUBLIC "-//W3C//DTD SVG 1.1//EN" "http://www.w3.org/Graphics/SVG/1.1/DTD/svg11.dtd">
<svg version="1.1" id="Capa_1" xmlns="http://www.w3.org/2000/svg" xmlns:xlink="http://www.w3.org/1999/xlink" x="0px" y="0px"
	 width="558.361px" height="558.361px" viewBox="0 0 558.361 558.361" style="enable-background:new 0 0 558.361 558.361;"
	 xml:space="preserve">
<g>
	<g>
		<path d="M288.165,10.22c-0.903,0.836-1.615,1.568-1.658,1.568c-0.044,0-0.756-0.727-1.654-1.568
			c-5.068-4.729-21.43-17.719-36.022-4.346c-17.217,15.783-2.716,51.762,35.543,68.248c1.128,0.488,2.089,0.899,2.133,0.951
			c0.043,0.053,0.999-0.282,2.132-0.765c38.26-16.496,52.761-52.646,35.544-68.429C309.594-7.499,293.238,5.491,288.165,10.22z"/>
		<path d="M66.803,284.937c11.15,3.418,22.955-2.845,26.383-13.99c0.01,0,31.576-102.912,31.576-102.912
			c0.186-0.435,1.128-2.242,3.337-2.242c0.201,0,4.447,0,4.447,0h0.01c1.257-0.019,1.989,1.047,1.659,2.252L71.021,374.833
			c-0.34,1.205,0,3.313,2.199,3.313h44.327c1.258,0,2.176,1.019,2.176,2.276c0,0-0.01,150.647-0.01,150.7
			c0,15.042,12.197,27.238,27.239,27.238c15.047,0,27.239-12.196,27.239-27.238l0.01-150.705c0-1.258,1.014-2.271,2.271-2.271h0.038
			h4.356h0.038c1.257,0,2.271,1.014,2.271,2.271l0.01,150.705c0,15.042,12.197,27.238,27.239,27.238
			c15.046,0,27.239-12.196,27.239-27.238c0-0.053-0.01-150.7-0.01-150.7c0-1.258,0.918-2.276,2.176-2.276h44.327
			c2.199,0,2.543-2.108,2.199-3.313l-63.188-206.784c-0.335-1.205,0.401-2.271,1.659-2.252h0.009c0,0,4.246,0,4.447,0
			c2.204,0,3.151,1.808,3.337,2.243c0,0,41.797,136.423,41.812,136.423c3.423,11.146,15.232,17.408,26.382,13.99
			c3.916-1.2,7.211-3.452,9.716-6.326c0.172-0.195,0.354-0.382,0.521-0.583c0,0,0.005-0.005,0.005-0.01
			c2.974-3.639,4.767-8.286,4.771-13.349c0.01-0.005,12.813-128.984,12.813-128.984c0-1.214,0.985-2.194,2.194-2.194h4.476
			c1.215,0,2.194,0.985,2.194,2.194c0,0,0,361.846,0,361.889c0,15.046,12.197,27.238,27.239,27.238s27.238-12.197,27.238-27.238
			c0-0.039,0-212.929,0-212.929c0-1.554,0.718-2.199,2.252-2.199h4.395c1.529,0,2.252,0.65,2.252,2.199c0,0,0,212.89,0,212.929
			c0,15.041,12.196,27.238,27.238,27.238s27.239-12.197,27.239-27.238c0-0.043,0-361.889,0-361.889c0-1.214,0.984-2.194,2.194-2.194
			h4.476c1.214,0,2.194,0.985,2.194,2.194c0,0,0.019,128.979,0.028,128.984c0.01,11.656,9.462,21.108,21.124,21.108
			c11.666,0,21.123-9.457,21.123-21.123c0-0.067,0-145.03,0-146.756c0-28.907-22.237-51.145-50.03-51.145
			c-0.708,0-38.068,0-55.592,0c0,0-3.51,0-8.894,0c-17.523,0-54.884,0-55.592,0c-27.793,0-47.435,21.209-50.03,51.14
			c-0.048,0.56-1.415,16.213-3.232,37.103c-5.871-19.182-10.198-33.32-10.198-33.32c-4.824-16.772-14.042-54.965-49.663-54.965
			h-89.046c-33.191,0-44.944,38.193-49.773,54.965c-0.1,0.354-31.632,103.313-31.647,103.356
			C49.38,269.698,55.648,281.513,66.803,284.937z"/>
		<circle cx="396.422" cy="47.538" r="40.535"/>
		<circle cx="176.829" cy="47.5" r="40.531"/>
	</g>
</g>
<g>
</g>
<g>
</g>
<g>
</g>
<g>
</g>
<g>
</g>
<g>
</g>
<g>
</g>
<g>
</g>
<g>
</g>
<g>
</g>
<g>
</g>
<g>
</g>
<g>
</g>
<g>
</g>
<g>
</g>
</svg>
